<svg xmlns="http://www.w3.org/2000/svg" xmlns:xlink="http://www.w3.org/1999/xlink" width="500" zoomAndPan="magnify" viewBox="0 0 375 374.999991" height="500" preserveAspectRatio="xMidYMid meet" version="1.0"><defs><g/><clipPath id="id1"><path d="M 263.480469 125.070312 L 287.480469 125.070312 L 287.480469 207.570312 L 263.480469 207.570312 Z M 263.480469 125.070312 " clip-rule="nonzero"/></clipPath></defs><rect x="-37.5" width="450" fill="#ffffff" y="-37.499999" height="449.999989" fill-opacity="1"/><rect x="-37.5" width="450" fill="#4f5872" y="-37.499999" height="449.999989" fill-opacity="1"/><rect x="-37.5" width="450" fill="#ffffff" y="-37.499999" height="449.999989" fill-opacity="1"/><rect x="-37.5" width="450" fill="#4f5872" y="-37.499999" height="449.999989" fill-opacity="1"/><g fill="#ffffff" fill-opacity="1"><g transform="translate(93.788945, 206.220457)"><g><path d="M 0 -70.890625 L 0 -70.511719 C 3.703125 -70.511719 5.367188 -69.984375 5.367188 -65.902344 L 5.367188 0 L 16.324219 0 L 16.324219 -76.332031 C 12.394531 -74.066406 5.59375 -71.570312 0 -70.890625 Z M 0 -70.890625 "/></g></g></g><g fill="#ffffff" fill-opacity="1"><g transform="translate(111.624484, 206.220457)"><g><path d="M 25.089844 0.753906 C 36.957031 0.753906 46.480469 -7.707031 46.480469 -25.695312 C 46.480469 -43.683594 36.804688 -52.148438 25.089844 -52.148438 C 12.847656 -52.148438 3.777344 -43.683594 3.777344 -25.695312 C 3.777344 -7.707031 13.300781 0.753906 25.089844 0.753906 Z M 19.347656 -50.257812 C 25.46875 -51.769531 33.101562 -41.945312 36.277344 -28.417969 C 39.453125 -14.890625 37.109375 -2.722656 30.988281 -1.210938 C 24.941406 0.300781 17.308594 -9.445312 14.132812 -22.976562 C 10.957031 -36.578125 13.300781 -48.746094 19.347656 -50.257812 Z M 19.347656 -50.257812 "/></g></g></g><g fill="#ffffff" fill-opacity="1"><g transform="translate(158.858719, 206.220457)"><g><path d="M 1.511719 11.789062 C 1.511719 22.296875 16.023438 24.183594 26.980469 24.183594 C 39.222656 24.183594 48.671875 20.859375 48.671875 11.035156 C 48.671875 -6.800781 16.703125 -1.058594 16.703125 -7.707031 C 16.703125 -9.445312 20.40625 -9.675781 21.917969 -9.523438 C 22.671875 -9.445312 23.503906 -9.445312 24.261719 -9.445312 C 37.636719 -9.445312 45.496094 -19.046875 45.496094 -30.835938 C 45.496094 -40.132812 40.507812 -48.144531 31.742188 -51.015625 L 45.269531 -51.015625 L 45.269531 -52.148438 L 23.882812 -52.148438 C 10.65625 -51.996094 2.871094 -42.472656 2.871094 -30.835938 C 2.871094 -20.707031 8.765625 -12.167969 18.894531 -9.976562 C 16.097656 -9.296875 13.226562 -7.785156 13.226562 -4.308594 C 13.226562 -1.4375 14.433594 0.679688 16.398438 2.417969 C 10.882812 1.964844 1.511719 4.914062 1.511719 11.789062 Z M 16.929688 -49.957031 C 17.761719 -50.257812 18.59375 -50.410156 19.421875 -50.410156 C 25.242188 -50.410156 31.0625 -43.683594 34.539062 -34.464844 C 38.46875 -23.882812 37.941406 -13.90625 31.441406 -11.714844 C 30.609375 -11.414062 29.777344 -11.261719 28.945312 -11.261719 C 23.050781 -11.261719 17.15625 -17.988281 13.679688 -27.285156 C 9.675781 -37.789062 10.355469 -47.6875 16.929688 -49.957031 Z M 20.027344 4.6875 C 21.238281 5.289062 22.597656 5.894531 24.035156 6.425781 C 33.027344 9.75 44.96875 9.976562 44.96875 16.097656 C 44.96875 19.5 41.492188 20.785156 36.125 20.785156 C 26.90625 20.785156 9.75 14.964844 9.75 7.9375 C 9.75 5.140625 12.09375 3.550781 15.265625 3.550781 C 16.703125 3.550781 18.367188 3.929688 20.027344 4.6875 Z M 20.027344 4.6875 "/></g></g></g><g fill="#ffffff" fill-opacity="1"><g transform="translate(203.750125, 206.220457)"><g><path d="M 25.089844 0.753906 C 36.957031 0.753906 46.480469 -7.707031 46.480469 -25.695312 C 46.480469 -43.683594 36.804688 -52.148438 25.089844 -52.148438 C 12.847656 -52.148438 3.777344 -43.683594 3.777344 -25.695312 C 3.777344 -7.707031 13.300781 0.753906 25.089844 0.753906 Z M 19.347656 -50.257812 C 25.46875 -51.769531 33.101562 -41.945312 36.277344 -28.417969 C 39.453125 -14.890625 37.109375 -2.722656 30.988281 -1.210938 C 24.941406 0.300781 17.308594 -9.445312 14.132812 -22.976562 C 10.957031 -36.578125 13.300781 -48.746094 19.347656 -50.257812 Z M 19.347656 -50.257812 "/></g></g></g><g fill="#ffffff" fill-opacity="1"><g transform="translate(250.981582, 206.220457)"><g/></g></g><path stroke-linecap="butt" transform="matrix(0.752016, 0, 0, 0.75, 81.344692, 226.00626)" fill="none" stroke-linejoin="miter" d="M -0.00125258 0.00207059 L 168.556018 0.00207059 " stroke="#ffffff" stroke-width="1" stroke-opacity="1" stroke-miterlimit="4"/><g clip-path="url(#id1)"><path fill="#ffffff" d="M 285.042969 202.738281 L 277.863281 202.738281 L 277.863281 129.90625 L 285.042969 129.90625 C 286.367188 129.90625 287.4375 128.824219 287.4375 127.488281 C 287.4375 126.152344 286.367188 125.070312 285.042969 125.070312 L 265.894531 125.070312 C 264.570312 125.070312 263.5 126.152344 263.5 127.488281 C 263.5 128.824219 264.570312 129.90625 265.894531 129.90625 L 273.074219 129.90625 L 273.074219 202.738281 L 265.894531 202.738281 C 264.570312 202.738281 263.5 203.820312 263.5 205.15625 C 263.5 206.492188 264.570312 207.570312 265.894531 207.570312 L 285.042969 207.570312 C 286.367188 207.570312 287.4375 206.492188 287.4375 205.15625 C 287.4375 203.820312 286.367188 202.738281 285.042969 202.738281 Z M 285.042969 202.738281 " fill-opacity="1" fill-rule="nonzero"/></g><g fill="#ffffff" fill-opacity="1"><g transform="translate(234.263631, 229.756259)"><g><path d="M 5.265625 0 L 5.265625 -0.714844 L 1.59375 -0.714844 L 1.59375 -3.375 L 5.15625 -3.375 L 5.15625 -4.101562 L 1.59375 -4.101562 L 1.59375 -6.761719 L 5.265625 -6.761719 L 5.265625 -7.476562 L 0.824219 -7.476562 L 0.824219 0 Z M 5.265625 0 "/></g></g></g><g fill="#ffffff" fill-opacity="1"><g transform="translate(242.915584, 229.756259)"><g><path d="M 6.628906 -3.738281 C 6.628906 -4.277344 6.519531 -4.773438 6.320312 -5.234375 C 6.125 -5.695312 5.847656 -6.089844 5.507812 -6.421875 C 5.15625 -6.75 4.75 -7.003906 4.289062 -7.191406 C 3.816406 -7.378906 3.308594 -7.476562 2.78125 -7.476562 L 0.824219 -7.476562 L 0.824219 0 L 2.78125 0 C 3.308594 0 3.816406 -0.0898438 4.289062 -0.273438 C 4.75 -0.460938 5.15625 -0.726562 5.507812 -1.054688 C 5.847656 -1.386719 6.125 -1.769531 6.320312 -2.230469 C 6.519531 -2.695312 6.628906 -3.1875 6.628906 -3.738281 Z M 5.882812 -3.738281 C 5.882812 -2.878906 5.574219 -2.164062 4.980469 -1.605469 C 4.386719 -1.042969 3.660156 -0.769531 2.804688 -0.769531 L 1.59375 -0.769531 L 1.59375 -6.707031 L 2.804688 -6.707031 C 3.660156 -6.707031 4.386719 -6.421875 4.980469 -5.871094 C 5.574219 -5.300781 5.882812 -4.585938 5.882812 -3.738281 Z M 5.882812 -3.738281 "/></g></g></g><g fill="#ffffff" fill-opacity="1"><g transform="translate(252.6008, 229.756259)"><g><path d="M 7.410156 -3.761719 C 7.410156 -2.902344 7.101562 -2.175781 6.507812 -1.582031 C 5.90625 -0.980469 5.179688 -0.683594 4.332031 -0.683594 C 3.484375 -0.683594 2.757812 -0.980469 2.164062 -1.582031 C 1.5625 -2.175781 1.265625 -2.902344 1.265625 -3.761719 C 1.265625 -4.597656 1.5625 -5.320312 2.164062 -5.925781 C 2.757812 -6.519531 3.484375 -6.828125 4.332031 -6.828125 C 5.179688 -6.828125 5.90625 -6.519531 6.507812 -5.925781 C 7.101562 -5.320312 7.410156 -4.597656 7.410156 -3.761719 Z M 8.179688 -3.761719 C 8.179688 -4.289062 8.070312 -4.78125 7.871094 -5.253906 C 7.675781 -5.71875 7.398438 -6.125 7.046875 -6.476562 C 6.695312 -6.816406 6.289062 -7.089844 5.828125 -7.289062 C 5.355469 -7.488281 4.859375 -7.597656 4.332031 -7.597656 C 3.804688 -7.597656 3.296875 -7.488281 2.835938 -7.289062 C 2.375 -7.089844 1.96875 -6.816406 1.617188 -6.476562 C 1.265625 -6.125 0.988281 -5.71875 0.792969 -5.253906 C 0.59375 -4.78125 0.496094 -4.289062 0.496094 -3.761719 C 0.496094 -3.234375 0.59375 -2.726562 0.792969 -2.265625 C 0.988281 -1.792969 1.265625 -1.386719 1.617188 -1.035156 C 1.96875 -0.683594 2.375 -0.40625 2.835938 -0.207031 C 3.296875 -0.0117188 3.804688 0.0898438 4.332031 0.0898438 C 4.859375 0.0898438 5.355469 -0.0117188 5.828125 -0.207031 C 6.289062 -0.40625 6.695312 -0.683594 7.046875 -1.035156 C 7.398438 -1.386719 7.675781 -1.792969 7.871094 -2.265625 C 8.070312 -2.726562 8.179688 -3.234375 8.179688 -3.761719 Z M 8.179688 -3.761719 "/></g></g></g><g fill="#ffffff" fill-opacity="1"><g transform="translate(263.835924, 229.756259)"><g><path d="M 7.683594 -2.285156 L 6.839844 -2.285156 C 6.574219 -1.804688 6.210938 -1.40625 5.75 -1.121094 C 5.289062 -0.824219 4.773438 -0.683594 4.222656 -0.683594 C 3.398438 -0.683594 2.695312 -0.980469 2.109375 -1.59375 C 1.539062 -2.175781 1.265625 -2.890625 1.265625 -3.726562 C 1.265625 -4.5625 1.539062 -5.277344 2.109375 -5.871094 C 2.375 -6.144531 2.695312 -6.367188 3.054688 -6.53125 C 3.410156 -6.695312 3.761719 -6.785156 4.113281 -6.785156 C 4.453125 -6.785156 4.75 -6.738281 5.015625 -6.664062 C 5.816406 -6.421875 6.421875 -5.9375 6.828125 -5.199219 L 7.675781 -5.199219 C 7.386719 -5.90625 6.9375 -6.476562 6.3125 -6.914062 C 5.671875 -7.355469 4.980469 -7.574219 4.222656 -7.574219 C 3.175781 -7.574219 2.296875 -7.191406 1.574219 -6.433594 C 1.230469 -6.082031 0.96875 -5.664062 0.78125 -5.199219 C 0.582031 -4.738281 0.496094 -4.242188 0.496094 -3.726562 C 0.496094 -2.671875 0.847656 -1.78125 1.574219 -1.035156 C 2.296875 -0.265625 3.175781 0.109375 4.222656 0.109375 C 4.980469 0.109375 5.671875 -0.109375 6.320312 -0.550781 C 6.949219 -0.988281 7.398438 -1.5625 7.683594 -2.285156 Z M 7.683594 -2.285156 "/></g></g></g><g fill="#ffffff" fill-opacity="1"><g transform="translate(274.411514, 229.756259)"><g><path d="M 7.410156 -3.761719 C 7.410156 -2.902344 7.101562 -2.175781 6.507812 -1.582031 C 5.90625 -0.980469 5.179688 -0.683594 4.332031 -0.683594 C 3.484375 -0.683594 2.757812 -0.980469 2.164062 -1.582031 C 1.5625 -2.175781 1.265625 -2.902344 1.265625 -3.761719 C 1.265625 -4.597656 1.5625 -5.320312 2.164062 -5.925781 C 2.757812 -6.519531 3.484375 -6.828125 4.332031 -6.828125 C 5.179688 -6.828125 5.90625 -6.519531 6.507812 -5.925781 C 7.101562 -5.320312 7.410156 -4.597656 7.410156 -3.761719 Z M 8.179688 -3.761719 C 8.179688 -4.289062 8.070312 -4.78125 7.871094 -5.253906 C 7.675781 -5.71875 7.398438 -6.125 7.046875 -6.476562 C 6.695312 -6.816406 6.289062 -7.089844 5.828125 -7.289062 C 5.355469 -7.488281 4.859375 -7.597656 4.332031 -7.597656 C 3.804688 -7.597656 3.296875 -7.488281 2.835938 -7.289062 C 2.375 -7.089844 1.96875 -6.816406 1.617188 -6.476562 C 1.265625 -6.125 0.988281 -5.71875 0.792969 -5.253906 C 0.59375 -4.78125 0.496094 -4.289062 0.496094 -3.761719 C 0.496094 -3.234375 0.59375 -2.726562 0.792969 -2.265625 C 0.988281 -1.792969 1.265625 -1.386719 1.617188 -1.035156 C 1.96875 -0.683594 2.375 -0.40625 2.835938 -0.207031 C 3.296875 -0.0117188 3.804688 0.0898438 4.332031 0.0898438 C 4.859375 0.0898438 5.355469 -0.0117188 5.828125 -0.207031 C 6.289062 -0.40625 6.695312 -0.683594 7.046875 -1.035156 C 7.398438 -1.386719 7.675781 -1.792969 7.871094 -2.265625 C 8.070312 -2.726562 8.179688 -3.234375 8.179688 -3.761719 Z M 8.179688 -3.761719 "/></g></g></g><g fill="#ffffff" fill-opacity="1"><g transform="translate(285.646639, 229.756259)"><g><path d="M 6.628906 -3.738281 C 6.628906 -4.277344 6.519531 -4.773438 6.320312 -5.234375 C 6.125 -5.695312 5.847656 -6.089844 5.507812 -6.421875 C 5.15625 -6.75 4.75 -7.003906 4.289062 -7.191406 C 3.816406 -7.378906 3.308594 -7.476562 2.78125 -7.476562 L 0.824219 -7.476562 L 0.824219 0 L 2.78125 0 C 3.308594 0 3.816406 -0.0898438 4.289062 -0.273438 C 4.75 -0.460938 5.15625 -0.726562 5.507812 -1.054688 C 5.847656 -1.386719 6.125 -1.769531 6.320312 -2.230469 C 6.519531 -2.695312 6.628906 -3.1875 6.628906 -3.738281 Z M 5.882812 -3.738281 C 5.882812 -2.878906 5.574219 -2.164062 4.980469 -1.605469 C 4.386719 -1.042969 3.660156 -0.769531 2.804688 -0.769531 L 1.59375 -0.769531 L 1.59375 -6.707031 L 2.804688 -6.707031 C 3.660156 -6.707031 4.386719 -6.421875 4.980469 -5.871094 C 5.574219 -5.300781 5.882812 -4.585938 5.882812 -3.738281 Z M 5.882812 -3.738281 "/></g></g></g><g fill="#ffffff" fill-opacity="1"><g transform="translate(295.331853, 229.756259)"><g><path d="M 5.265625 0 L 5.265625 -0.714844 L 1.59375 -0.714844 L 1.59375 -3.375 L 5.15625 -3.375 L 5.15625 -4.101562 L 1.59375 -4.101562 L 1.59375 -6.761719 L 5.265625 -6.761719 L 5.265625 -7.476562 L 0.824219 -7.476562 L 0.824219 0 Z M 5.265625 0 "/></g></g></g></svg>